<svg xmlns="http://www.w3.org/2000/svg" viewBox="0 0 64 64"><defs><style>.cls-1{fill:#0072ff;}</style></defs><title>Video Film</title><g id="Layer_2" data-name="Layer 2"><path class="cls-1" d="M15.85,60H45.09c2.93,0,6.35-2.17,7.31-4.94a6.22,6.22,0,0,1,2.13-2.93,13.77,13.77,0,0,0,5.47-11V31.94A7.94,7.94,0,0,0,52.06,24H16.28A8.19,8.19,0,0,1,8,16.55,8,8,0,0,1,16,8H35.18A4.82,4.82,0,0,1,40,12.82v5.08A2.07,2.07,0,0,0,41.66,20,2,2,0,0,0,44,18V12.82A8.82,8.82,0,0,0,35.18,4H16A12,12,0,0,0,4,16V48.15A11.85,11.85,0,0,0,15.85,60ZM48,29.74A1.74,1.74,0,0,1,49.74,28h.52A1.74,1.74,0,0,1,52,29.74v.52A1.74,1.74,0,0,1,50.26,32h-.52A1.74,1.74,0,0,1,48,30.26Zm-8,0A1.74,1.74,0,0,1,41.74,28h.52A1.74,1.74,0,0,1,44,29.74v.52A1.74,1.74,0,0,1,42.26,32h-.52A1.74,1.74,0,0,1,40,30.26Zm0,24A1.74,1.74,0,0,1,41.74,52h.52A1.74,1.74,0,0,1,44,53.74v.52A1.74,1.74,0,0,1,42.26,56h-.52A1.74,1.74,0,0,1,40,54.26Zm-8-24A1.74,1.74,0,0,1,33.74,28h.52A1.74,1.74,0,0,1,36,29.74v.52A1.74,1.74,0,0,1,34.26,32h-.52A1.74,1.74,0,0,1,32,30.26Zm0,24A1.74,1.74,0,0,1,33.74,52h.52A1.74,1.74,0,0,1,36,53.74v.52A1.74,1.74,0,0,1,34.26,56h-.52A1.74,1.74,0,0,1,32,54.26Zm-8-24A1.74,1.74,0,0,1,25.74,28h.52A1.74,1.74,0,0,1,28,29.74v.52A1.74,1.74,0,0,1,26.26,32h-.52A1.74,1.74,0,0,1,24,30.26Zm0,24A1.74,1.74,0,0,1,25.74,52h.52A1.74,1.74,0,0,1,28,53.74v.52A1.74,1.74,0,0,1,26.26,56h-.52A1.74,1.74,0,0,1,24,54.26Zm-8-24A1.74,1.74,0,0,1,17.74,28h.52A1.74,1.74,0,0,1,20,29.74v.52A1.74,1.74,0,0,1,18.26,32h-.52A1.74,1.74,0,0,1,16,30.26Zm0,24A1.74,1.74,0,0,1,17.74,52h.52A1.74,1.74,0,0,1,20,53.74v.52A1.74,1.74,0,0,1,18.26,56h-.52A1.74,1.74,0,0,1,16,54.26Z"/><rect class="cls-1" x="16" y="12" width="4" height="4" rx="1.74" ry="1.74"/><rect class="cls-1" x="24" y="12" width="4" height="4" rx="1.74" ry="1.74"/><rect class="cls-1" x="32" y="12" width="4" height="4" rx="1.74" ry="1.74"/></g></svg>