<svg xmlns="http://www.w3.org/2000/svg" viewBox="0 0 64 64"><defs><style>.cls-1{fill:#0072ff;}</style></defs><title>Camera photography</title><g id="Layer_2" data-name="Layer 2"><path class="cls-1" d="M32,44A10,10,0,1,0,22,34,10,10,0,0,0,32,44Z"/><path class="cls-1" d="M9.51,56h45A5.51,5.51,0,0,0,60,50.49V20.18A4.18,4.18,0,0,0,55.82,16H48.3a1.81,1.81,0,0,1-1.51-.81L43.3,10a4.39,4.39,0,0,0-3.65-2H24.35a4.39,4.39,0,0,0-3.65,2L17.2,15.19A1.81,1.81,0,0,1,15.7,16H8.18A4.18,4.18,0,0,0,4,20.18V50.49A5.51,5.51,0,0,0,9.51,56ZM52,20a2,2,0,1,1-2,2A2,2,0,0,1,52,20ZM32,20A14,14,0,1,1,18,34,14,14,0,0,1,32,20Z"/><path class="cls-1" d="M54.82,12A1.18,1.18,0,0,0,56,10.82v-.61A2.22,2.22,0,0,0,53.78,8H49.63a.74.74,0,0,0-.74.74A3.26,3.26,0,0,0,52.15,12Z"/></g></svg>