<?xml version="1.0" encoding="UTF-8"?>
<!DOCTYPE svg PUBLIC "-//W3C//DTD SVG 1.1//EN" "http://www.w3.org/Graphics/SVG/1.1/DTD/svg11.dtd">
<!-- Creator: CorelDRAW -->
<svg xmlns="http://www.w3.org/2000/svg" xml:space="preserve" width="2048px" height="2048px" style="shape-rendering:geometricPrecision; text-rendering:geometricPrecision; image-rendering:optimizeQuality; fill-rule:evenodd; clip-rule:evenodd"
viewBox="0 0 2048 2048"
 xmlns:xlink="http://www.w3.org/1999/xlink">
 <defs>
  <style type="text/css">
   <![CDATA[
    .fil2 {fill:none}
    .fil1 {fill:#FB8C00}
    .fil0 {fill:#FFB74D}
    .fil3 {fill:#424242;fill-rule:nonzero}
    .fil4 {fill:#BA68C8;fill-rule:nonzero}
    .fil5 {fill:#CE93D8;fill-rule:nonzero}
   ]]>
  </style>
   <clipPath id="id0">
    <path d="M1024 -0.0011811c565.539,0 1024,458.462 1024,1024 0,565.539 -458.462,1024 -1024,1024 -565.539,0 -1024,-458.462 -1024,-1024 0,-565.539 458.462,-1024 1024,-1024z"/>
   </clipPath>
 </defs>
 <g id="Layer_x0020_1">
  <metadata id="CorelCorpID_0Corel-Layer"/>
  <path class="fil0" d="M1024 -0.0011811c565.539,0 1024,458.462 1024,1024 0,565.539 -458.462,1024 -1024,1024 -565.539,0 -1024,-458.462 -1024,-1024 0,-565.539 458.462,-1024 1024,-1024z"/>
  <g style="clip-path:url(#id0)">
   <g id="_466482872">
    <g>
     <polygon id="_3968066801" class="fil1" points="661.737,960.425 1797.62,2096.31 1797.62,2096.35 661.737,960.467 "/>
     <polygon id="_396826696" class="fil1" points="661.737,960.505 1797.62,2096.39 1797.62,2096.41 661.737,960.524 "/>
     <polygon id="_396796408" class="fil1" points="675.056,960.524 1810.94,2096.41 1808.38,2095.61 1805.85,2094.77 1803.33,2093.89 1800.82,2092.98 1798.34,2092.03 1795.87,2091.05 1793.43,2090.03 1791,2088.97 1788.59,2087.88 1786.2,2086.76 1783.83,2085.6 1781.49,2084.4 1779.16,2083.17 1776.86,2081.91 1774.57,2080.61 1772.31,2079.29 1770.08,2077.93 1767.86,2076.53 1765.67,2075.11 1763.51,2073.65 1761.36,2072.16 1759.25,2070.64 1757.15,2069.08 1755.09,2067.5 1753.05,2065.89 1751.03,2064.24 1749.04,2062.57 1747.08,2060.87 1745.15,2059.13 1743.25,2057.37 607.365,921.49 609.27,923.251 611.202,924.983 613.163,926.687 615.15,928.36 617.164,930.004 619.205,931.618 621.272,933.202 623.364,934.753 625.482,936.275 627.624,937.764 629.79,939.223 631.981,940.648 634.195,942.043 636.432,943.404 638.692,944.733 640.975,946.028 643.28,947.291 645.605,948.519 647.952,949.713 650.32,950.873 652.71,951.999 655.118,953.09 657.545,954.145 659.992,955.165 662.458,956.149 664.942,957.098 667.445,958.009 669.965,958.885 672.502,959.723 "/>
     <path id="_396819544" class="fil1" d="M1856.6 1767.63l0 0zm-1135.88 -1135.88l0 0z"/>
     <polygon id="_396805720" class="fil1" points="1308.39,733.321 2444.27,1869.2 2444.2,1875.3 2443.98,1881.34 2443.62,1887.33 2443.12,1893.27 2442.48,1899.16 2441.7,1904.99 2440.78,1910.76 2439.73,1916.48 2438.55,1922.14 2437.23,1927.74 2435.78,1933.27 2434.21,1938.74 2432.5,1944.15 2430.68,1949.49 2428.72,1954.76 2426.65,1959.97 2424.46,1965.1 2422.14,1970.16 2419.71,1975.15 2417.16,1980.07 2414.5,1984.9 2411.73,1989.66 2408.84,1994.34 2405.85,1998.94 2402.75,2003.46 2399.54,2007.9 2396.22,2012.25 2392.81,2016.51 2389.29,2020.69 2385.67,2024.78 2381.96,2028.78 2378.14,2032.68 1242.26,896.8 1246.08,892.894 1249.79,888.896 1253.41,884.808 1256.93,880.631 1260.34,876.366 1263.66,872.016 1266.86,867.581 1269.97,863.062 1272.96,858.461 1275.85,853.781 1278.62,849.021 1281.28,844.183 1283.83,839.27 1286.26,834.282 1288.57,829.22 1290.77,824.086 1292.84,818.883 1294.79,813.609 1296.62,808.268 1298.33,802.861 1299.9,797.389 1301.35,791.853 1302.66,786.256 1303.85,780.598 1304.9,774.881 1305.82,769.105 1306.6,763.274 1307.24,757.387 1307.74,751.447 1308.1,745.456 1308.32,739.413 "/>
     <polygon id="_396808744" class="fil1" points="845.135,682.21 1981.02,1818.09 1981.85,1818.96 1982.68,1819.84 1983.5,1820.73 1984.32,1821.62 1985.13,1822.51 1985.93,1823.41 850.053,687.532 849.25,686.63 848.44,685.734 847.622,684.844 846.799,683.96 845.97,683.082 "/>
     <polygon id="_396813688" class="fil1" points="1242.26,896.8 2378.14,2032.68 2375.05,2035.72 2371.9,2038.69 2368.69,2041.6 2365.42,2044.45 2362.1,2047.24 2358.72,2049.96 2355.29,2052.62 2351.8,2055.22 2348.26,2057.75 2344.66,2060.22 2341.02,2062.62 2337.32,2064.95 2333.57,2067.22 2329.78,2069.41 2325.93,2071.54 2322.04,2073.6 2318.1,2075.58 2314.12,2077.5 2310.09,2079.34 2306.01,2081.11 2301.89,2082.8 2297.73,2084.42 2293.53,2085.97 2289.28,2087.44 2285,2088.84 2280.67,2090.15 2276.31,2091.39 2271.91,2092.55 2267.47,2093.63 2262.99,2094.63 2258.48,2095.55 2253.93,2096.39 1118.05,960.511 1122.6,959.672 1127.11,958.751 1131.59,957.751 1136.03,956.669 1140.43,955.509 1144.79,954.27 1149.12,952.953 1153.4,951.559 1157.65,950.088 1161.85,948.542 1166.01,946.921 1170.13,945.225 1174.2,943.456 1178.23,941.613 1182.22,939.699 1186.16,937.713 1190.05,935.657 1193.9,933.53 1197.69,931.334 1201.44,929.07 1205.14,926.737 1208.78,924.337 1212.38,921.871 1215.92,919.339 1219.41,916.742 1222.84,914.081 1226.22,911.356 1229.54,908.567 1232.81,905.717 1236.02,902.806 1239.17,899.833 "/>
     <polygon id="_396822400" class="fil1" points="1252.84,581.234 2388.72,1717.12 2392.27,1721.33 2395.71,1725.62 2399.06,1730.01 2402.29,1734.48 2405.42,1739.03 2408.45,1743.67 2411.36,1748.38 2414.16,1753.18 2416.85,1758.05 2419.42,1762.99 2421.88,1768.01 2424.22,1773.11 2426.43,1778.27 2428.53,1783.5 2430.51,1788.8 2432.36,1794.17 2434.08,1799.6 2435.67,1805.09 2437.14,1810.65 2438.47,1816.26 2439.67,1821.93 2440.74,1827.66 2441.66,1833.45 2442.45,1839.28 2443.11,1845.17 2443.61,1851.11 2443.98,1857.09 2444.2,1863.13 2444.27,1869.2 1308.39,733.321 1308.32,727.243 1308.1,721.21 1307.73,715.224 1307.22,709.287 1306.57,703.399 1305.78,697.563 1304.85,691.779 1303.79,686.051 1302.59,680.379 1301.26,674.765 1299.79,669.211 1298.2,663.717 1296.47,658.287 1294.63,652.921 1292.65,647.62 1290.55,642.388 1288.34,637.224 1286,632.131 1283.54,627.11 1280.97,622.164 1278.28,617.293 1275.48,612.499 1272.56,607.783 1269.54,603.148 1266.41,598.595 1263.17,594.126 1259.83,589.741 1256.39,585.443 "/>
     <polygon id="_396826504" class="fil1" points="1283.17,1014.31 2419.05,2150.19 2421.26,2152.59 2423.41,2155.04 2425.51,2157.54 2427.56,2160.09 2429.56,2162.69 2431.5,2165.33 2433.38,2168.02 2435.22,2170.77 2436.99,2173.55 2438.72,2176.39 2440.39,2179.28 2442.01,2182.21 2443.57,2185.19 2445.08,2188.22 2446.54,2191.3 2447.94,2194.43 2449.29,2197.61 2450.59,2200.83 2451.83,2204.1 2453.02,2207.42 2454.16,2210.79 2455.24,2214.2 2456.26,2217.67 2457.24,2221.18 2458.16,2224.74 2459.03,2228.35 2459.84,2232 2460.6,2235.71 2461.31,2239.46 1325.43,1103.58 1324.72,1099.83 1323.96,1096.12 1323.15,1092.47 1322.28,1088.86 1321.36,1085.3 1320.38,1081.78 1319.36,1078.32 1318.27,1074.9 1317.14,1071.54 1315.95,1068.22 1314.71,1064.95 1313.41,1061.72 1312.06,1058.55 1310.66,1055.42 1309.2,1052.34 1307.69,1049.31 1306.13,1046.33 1304.51,1043.39 1302.84,1040.51 1301.11,1037.67 1299.33,1034.88 1297.5,1032.14 1295.61,1029.45 1293.68,1026.8 1291.68,1024.21 1289.63,1021.66 1287.53,1019.16 1285.38,1016.71 "/>
     <polygon id="_396806848" class="fil1" points="1584,1480.69 2719.88,2616.57 2719.88,2630.28 1584,1494.4 "/>
     <polygon id="_396800416" class="fil1" points="1584,1494.4 2719.88,2630.28 2719.88,2674.43 1584,1538.54 "/>
     <polygon id="_396807640" class="fil1" points="1584,1538.54 2719.88,2674.43 2681.7,2652.25 1545.82,1516.37 "/>
     <polygon id="_396826888" class="fil1" points="1545.82,1516.37 2681.7,2652.25 2669.66,2645.26 1533.78,1509.38 "/>
     <polygon id="_396795712" class="fil1" points="1533.78,1509.38 2669.66,2645.26 2463.5,2525.63 1327.62,1389.75 "/>
     <polygon id="_396810208" class="fil1" points="1327.62,1389.75 2463.5,2525.63 2462.94,2529.76 2462.32,2533.85 2461.64,2537.88 2460.9,2541.86 2460.09,2545.79 2459.22,2549.67 2458.29,2553.5 2457.3,2557.28 2456.24,2561 2455.13,2564.68 2453.95,2568.3 2452.7,2571.87 2451.4,2575.38 2450.03,2578.85 2448.6,2582.26 2447.1,2585.62 2445.54,2588.92 2443.92,2592.18 2442.24,2595.38 2440.49,2598.53 2438.68,2601.62 2436.81,2604.66 2434.87,2607.65 2432.87,2610.58 2430.81,2613.46 2428.68,2616.29 2426.49,2619.06 2424.24,2621.78 2421.92,2624.45 2419.54,2627.06 2417.09,2629.61 2414.59,2632.12 1278.7,1496.23 1281.21,1493.73 1283.66,1491.17 1286.04,1488.56 1288.36,1485.9 1290.61,1483.18 1292.8,1480.41 1294.93,1477.58 1296.99,1474.7 1298.99,1471.77 1300.93,1468.78 1302.8,1465.74 1304.61,1462.64 1306.36,1459.5 1308.04,1456.29 1309.66,1453.04 1311.22,1449.73 1312.71,1446.38 1314.15,1442.96 1315.51,1439.5 1316.82,1435.98 1318.06,1432.41 1319.24,1428.79 1320.36,1425.12 1321.42,1421.4 1322.41,1417.62 1323.34,1413.79 1324.21,1409.91 1325.01,1405.98 1325.76,1402 1326.44,1397.97 1327.06,1393.88 "/>
     <polygon id="_396810568" class="fil1" points="464.08,1152.86 1599.96,2288.74 1599.92,2288.74 464.042,1152.86 "/>
     <polygon id="_396805984" class="fil1" points="464.042,1152.86 1599.92,2288.74 1599.91,2289.34 1599.9,2290.03 1599.9,2290.67 1599.89,2291.15 1599.89,2291.32 464.006,1155.44 464.011,1155.26 464.016,1154.79 464.024,1154.15 464.033,1153.46 "/>
     <polygon id="_396798568" class="fil1" points="661.737,1545.62 1797.62,2681.5 1797.42,2681.5 661.538,1545.62 "/>
     <polygon id="_396800392" class="fil1" points="661.538,1545.62 1797.42,2681.5 1797.23,2681.5 661.345,1545.62 "/>
     <polygon id="_396813472" class="fil1" points="661.345,1545.62 1797.23,2681.5 1791.24,2681.41 1785.34,2681.22 1779.53,2680.93 1773.81,2680.55 1768.18,2680.07 1762.64,2679.5 1757.19,2678.83 1751.83,2678.06 1746.56,2677.2 1741.38,2676.25 1736.28,2675.2 1731.28,2674.05 1726.37,2672.8 1721.55,2671.47 1716.81,2670.03 1712.17,2668.5 1707.62,2666.88 1703.16,2665.15 1698.79,2663.34 1694.5,2661.43 1690.31,2659.42 1686.21,2657.31 1682.2,2655.11 1678.28,2652.82 1674.45,2650.43 1670.71,2647.94 1667.06,2645.36 1663.5,2642.68 1660.03,2639.91 524.151,1504.03 527.619,1506.8 531.178,1509.48 534.827,1512.06 538.567,1514.55 542.397,1516.94 546.318,1519.23 550.329,1521.43 554.43,1523.54 558.622,1525.54 562.904,1527.46 567.276,1529.27 571.738,1530.99 576.291,1532.62 580.933,1534.15 585.665,1535.58 590.488,1536.92 595.4,1538.16 600.403,1539.31 605.495,1540.36 610.676,1541.32 615.948,1542.18 621.309,1542.94 626.76,1543.61 632.3,1544.19 637.93,1544.67 643.649,1545.05 649.459,1545.33 655.356,1545.52 "/>
     <polygon id="_396816544" class="fil1" points="1132.1,1545.63 2267.98,2681.52 1797.62,2681.5 661.737,1545.62 "/>
     <polygon id="_396809320" class="fil1" points="661.737,960.467 1797.62,2096.35 1796.99,2096.34 1796.26,2096.33 1795.57,2096.32 1795.07,2096.32 1794.88,2096.31 659,960.431 659.187,960.435 659.691,960.441 660.377,960.448 661.105,960.458 "/>
     <polygon id="_396799576" class="fil1" points="662.201,960.485 1798.08,2096.37 1798.07,2096.37 1797.99,2096.38 1797.84,2096.38 1797.62,2096.39 661.737,960.505 661.964,960.5 662.112,960.496 662.189,960.49 "/>
     <polygon id="_396804928" class="fil1" points="1278.7,1496.23 2414.59,2632.12 2411.41,2635.12 2408.14,2638.04 2404.78,2640.86 2401.33,2643.59 2397.79,2646.23 2394.16,2648.78 2390.44,2651.23 2386.64,2653.59 2382.74,2655.86 2378.75,2658.03 2374.67,2660.11 2370.5,2662.09 2366.24,2663.98 2361.89,2665.77 2357.45,2667.47 2352.92,2669.08 2348.3,2670.59 2343.58,2672 2338.78,2673.32 2333.88,2674.54 2328.89,2675.67 2323.81,2676.7 2318.65,2677.63 2313.38,2678.46 2308.03,2679.2 2302.58,2679.84 2297.05,2680.38 2291.42,2680.82 2285.7,2681.17 2279.88,2681.42 2273.98,2681.57 2267.98,2681.62 1132.1,1545.73 1138.1,1545.68 1144,1545.54 1149.82,1545.29 1155.54,1544.94 1161.17,1544.5 1166.7,1543.96 1172.15,1543.32 1177.5,1542.58 1182.76,1541.74 1187.93,1540.81 1193.01,1539.78 1198,1538.66 1202.9,1537.44 1207.7,1536.12 1212.41,1534.71 1217.04,1533.2 1221.57,1531.59 1226.01,1529.89 1230.36,1528.1 1234.62,1526.21 1238.79,1524.22 1242.87,1522.15 1246.86,1519.97 1250.76,1517.71 1254.56,1515.35 1258.28,1512.9 1261.91,1510.35 1265.45,1507.71 1268.9,1504.98 1272.26,1502.16 1275.53,1499.24 "/>
     <polygon id="_396823288" class="fil1" points="1584,990.731 2719.88,2126.61 2719.88,2616.57 1584,1480.69 "/>
     <polygon id="_396827944" class="fil1" points="1584,945.419 2719.88,2081.3 2719.88,2126.61 1584,990.731 "/>
    </g>
    <path id="_466476632" class="fil1" d="M661.737 960.467c-1.43504,-0.0283465 -5.36575,-0.0425197 0,-0.0425197l0 0.0425197zm0 0.0377953l0 -0.0377953c0.52441,0.0106299 0.714567,0.0248032 0,0.0377953zm58.9819 -328.753l0 0zm587.673 101.569c0,65.2394 -24.9532,122.308 -66.1288,163.479 -32.6705,32.667 -75.5375,55.1989 -124.21,63.7111l14.0469 0 0 -0.100394c62.5536,0 110.56,15.7051 144.119,46.976 25.5685,23.8264 41.9528,55.9099 49.2083,96.1914l207.702 -127.069 12.1949 -7.45276 38.6764 -23.6374 0 45.3118 0 489.961 0 13.7091 0 44.1426 -38.1803 -22.1705 -12.0413 -6.99213 -206.164 -119.634c-5.6126,44.3811 -21.8055,80.0918 -48.9107,106.487 -33.4418,32.5689 -82.1363,49.5 -146.604,49.5l0 -0.0992127 -470.364 -0.0129921 -0.198425 0 -0.193701 -0.0011811c-64.3441,-0.504331 -113.449,-17.3362 -147.053,-50.4839 -33.8327,-33.3685 -50.6528,-81.7571 -50.1886,-145.14l0 -0.178347 0.00708662 -194.309 -0.0295276 -2.64685 -0.0377953 0c-0.0283465,1.36063 -0.0425197,5.04567 -0.0425197,0 0,-62.1083 16.839,-109.67 50.2607,-142.545 33.1866,-32.6445 81.4524,-49.2839 144.541,-49.7823l0.100394 0 2.83465 -0.0295276 0 0.0188977 13.3193 0c-27.3295,-8.34449 -51.8622,-23.0929 -71.4154,-42.6437 -29.8642,-29.863 -48.2079,-70.8898 -47.4107,-117.483 -0.0732284,-3.55748 -0.111024,-1.05827 -0.111024,-2.89607l0.0897638 0c-0.0011811,-45.8622 18.4996,-86.9127 48.378,-116.712 29.7307,-29.6551 70.8024,-48.13 116.132,-49.0394 4.03937,-0.080315 1.70315,-0.11811 3.39567,-0.11811 47.2642,0 89.1461,18.502 119.329,48.8528 2.27126,2.28425 4.4752,4.63465 6.60945,7.04764 8.30197,-42.1205 28.9229,-83.0599 63.7465,-117.863 5.7,-5.67993 11.511,-11.0599 17.4024,-16.0016 5.95748,-4.99843 12.3154,-9.80906 19.1126,-14.3516l0.0885827 -0.0897638c18.4051,-12.2634 38.2252,-21.4949 59.576,-27.6921 21.2788,-6.17599 43.6961,-9.26812 67.356,-9.26812 64.7847,0 122.63,25.2402 164.276,66.8859 41.4733,41.4709 66.7808,99.1028 66.7808,164.17z"/>
   </g>
  </g>
  <path class="fil2" d="M1024 -0.0011811c565.539,0 1024,458.462 1024,1024 0,565.539 -458.462,1024 -1024,1024 -565.539,0 -1024,-458.462 -1024,-1024 0,-565.539 458.462,-1024 1024,-1024z"/>
  <path class="fil3" d="M661.737 960.467c-1.43504,-0.0283465 -5.36575,-0.0425197 0,-0.0425197l0 0.0425197z"/>
  <path class="fil3" d="M661.737 960.505c0.715749,-0.0129921 0.52441,-0.0271654 0,-0.0377953l0 0.0377953z"/>
  <path class="fil3" d="M464.08 1152.86c-0.0141732,-0.68504 -0.0271654,-0.500788 -0.0377953,0l0.0377953 0z"/>
  <path class="fil4" d="M1327.62 1389.75c-5.6126,44.38 -21.8055,80.0906 -48.9107,106.486 -33.4418,32.5689 -82.1363,49.5 -146.604,49.5l0 -0.0992127 -470.364 -0.0129921 -0.198425 0 -0.193701 -0.0011811c-64.343,-0.504331 -113.449,-17.3362 -147.053,-50.4839 -33.8327,-33.3685 -50.6528,-81.7571 -50.1886,-145.14l0 -0.178347 0.00708662 -194.308c-0.0106299,-1.36772 -0.0212599,-2.19567 -0.0295276,-2.64803l-0.0377953 0c-0.0271654,1.36063 -0.0425197,5.04567 -0.0425197,0 0,-62.1083 16.839,-109.671 50.2607,-142.545 33.1866,-32.6445 81.4524,-49.2839 144.541,-49.7823l0.100394 0c1.46929,-0.0106299 2.3563,-0.0200788 2.83465,-0.0295276l0 0.0188977 470.364 -0.0129921 0 -0.0992127c62.5536,0 110.561,15.7039 144.119,46.9748 25.5685,23.8264 41.9528,55.9099 49.2083,96.1914l207.702 -127.069 12.1949 -7.45276 38.6764 -23.6374 0 45.3118 0 489.959 0 13.7102 0 44.1414 -38.1803 -22.1681 -12.0413 -6.99213 -206.164 -119.634z"/>
  <path class="fil5" d="M1009.98 511.533c21.2788,-6.17599 43.6961,-9.26812 67.356,-9.26812 64.7847,0 122.63,25.2402 164.276,66.8859 41.4733,41.4709 66.7808,99.1028 66.7808,164.17 0,65.2394 -24.9532,122.308 -66.13,163.478 -41.4579,41.4544 -99.3355,66.5871 -164.659,67.4634l-0.536221 0c-66.9756,-0.897638 -122.719,-27.1937 -162.752,-67.2485 -22.2874,-22.2992 -39.6449,-48.8126 -51.3036,-77.5323 -11.6374,-28.6689 -17.628,-59.6989 -17.2075,-91.0843 0.750001,-56.002 21.9662,-112.724 67.9961,-158.728 5.7,-5.67993 11.511,-11.0599 17.4024,-16.0016 5.95748,-4.99725 12.3154,-9.80906 19.1126,-14.3516l0.0885827 -0.0897638c18.4051,-12.2622 38.2252,-21.4949 59.576,-27.6921z"/>
  <path class="fil4" d="M603.641 917.88c-29.863,-29.863 -48.2091,-70.8898 -47.4107,-117.483 -0.0744095,-3.5563 -0.111024,-1.05709 -0.111024,-2.89488l0.0885827 0c-0.0011811,-45.8634 18.5008,-86.9138 48.3792,-116.713 29.7307,-29.6551 70.8024,-48.13 116.132,-49.037l0 -0.00236221c4.03937,-0.080315 1.70315,-0.11811 3.39567,-0.11811 47.2654,0 89.1473,18.502 119.329,48.854 30.2729,30.4418 48.6012,72.6485 48.6012,119.891 0,22.9087 -4.12205,44.2583 -12.2433,64.0382 -8.15906,19.8732 -20.2748,37.7941 -36.2185,53.7591l-0.0897638 0.0885827c-16.298,16.2791 -34.3914,28.5118 -54.1654,36.8138 -19.8957,8.35394 -41.5252,12.7039 -64.767,13.1681l-0.891733 0c-46.6288,-0.93189 -89.4261,-19.7669 -120.028,-50.3646z"/>
 </g>
</svg>
